<mxfile host="app.diagrams.net" agent="Mozilla/5.0 (X11; Linux x86_64; rv:130.0) Gecko/20100101 Firefox/130.0" version="24.7.16">
  <diagram name="PÃ¡gina-1" id="9-FKir2goN5deMy0l1kz">
    <mxGraphModel grid="1" page="1" gridSize="10" guides="1" tooltips="1" connect="1" arrows="1" fold="1" pageScale="1" pageWidth="827" pageHeight="1169" math="0" shadow="0">
      <root>
        <mxCell id="0" />
        <mxCell id="1" parent="0" />
        <mxCell id="K6d-B-GEiIUVzLwblQmk-32" value="" style="sketch=0;outlineConnect=0;fontColor=#232F3E;gradientColor=none;strokeColor=#ffffff;fillColor=#232F3E;dashed=0;verticalLabelPosition=middle;verticalAlign=bottom;align=center;html=1;whiteSpace=wrap;fontSize=10;fontStyle=1;spacing=3;shape=mxgraph.aws4.productIcon;prIcon=mxgraph.aws4.ec2;" vertex="1" parent="1">
          <mxGeometry x="360" y="759.25" width="30" height="48" as="geometry" />
        </mxCell>
        <mxCell id="K6d-B-GEiIUVzLwblQmk-16" value="" style="rounded=1;arcSize=10;dashed=1;fillColor=none;gradientColor=none;dashPattern=8 3 1 3;strokeWidth=2;" vertex="1" parent="1">
          <mxGeometry x="345.5" y="800" width="444.5" height="160" as="geometry" />
        </mxCell>
        <mxCell id="K6d-B-GEiIUVzLwblQmk-17" value="" style="rounded=1;arcSize=10;dashed=0;fillColor=none;gradientColor=none;strokeWidth=2;" vertex="1" parent="1">
          <mxGeometry x="140" y="210" width="670" height="870" as="geometry" />
        </mxCell>
        <mxCell id="K6d-B-GEiIUVzLwblQmk-2" value="Region us-east-1 - North Virginia" style="points=[[0,0],[0.25,0],[0.5,0],[0.75,0],[1,0],[1,0.25],[1,0.5],[1,0.75],[1,1],[0.75,1],[0.5,1],[0.25,1],[0,1],[0,0.75],[0,0.5],[0,0.25]];outlineConnect=0;gradientColor=none;html=1;whiteSpace=wrap;fontSize=12;fontStyle=0;container=1;pointerEvents=0;collapsible=0;recursiveResize=0;shape=mxgraph.aws4.group;grIcon=mxgraph.aws4.group_region;strokeColor=#00A4A6;fillColor=none;verticalAlign=top;align=left;spacingLeft=30;fontColor=#147EBA;dashed=1;" vertex="1" parent="1">
          <mxGeometry x="150" y="254" width="650" height="746" as="geometry" />
        </mxCell>
        <mxCell id="8c04EKVr1q2m-UehEfzs-16" value="&lt;font style=&quot;font-size: 8px;&quot;&gt;Internet Gateway&lt;/font&gt;" style="sketch=0;outlineConnect=0;fontColor=#232F3E;gradientColor=none;fillColor=#8C4FFF;strokeColor=none;dashed=0;verticalLabelPosition=bottom;verticalAlign=top;align=center;html=1;fontSize=12;fontStyle=0;aspect=fixed;pointerEvents=1;shape=mxgraph.aws4.internet_gateway;" vertex="1" parent="K6d-B-GEiIUVzLwblQmk-2">
          <mxGeometry x="383.5" y="22" width="48" height="48" as="geometry" />
        </mxCell>
        <mxCell id="8c04EKVr1q2m-UehEfzs-89" value="" style="sketch=0;outlineConnect=0;fontColor=#232F3E;gradientColor=none;fillColor=#ED7100;strokeColor=none;dashed=0;verticalLabelPosition=bottom;verticalAlign=top;align=center;html=1;fontSize=12;fontStyle=0;aspect=fixed;pointerEvents=1;shape=mxgraph.aws4.ecs_copilot_cli;" vertex="1" parent="K6d-B-GEiIUVzLwblQmk-2">
          <mxGeometry x="13" y="250" width="48" height="44" as="geometry" />
        </mxCell>
        <mxCell id="K6d-B-GEiIUVzLwblQmk-8" value="ALB" style="outlineConnect=0;dashed=0;verticalLabelPosition=bottom;verticalAlign=top;align=center;html=1;shape=mxgraph.aws3.application_load_balancer;fillColor=#F58534;gradientColor=none;" vertex="1" parent="1">
          <mxGeometry x="532.5" y="442" width="48" height="49" as="geometry" />
        </mxCell>
        <mxCell id="K6d-B-GEiIUVzLwblQmk-14" value="Clientes" style="outlineConnect=0;dashed=0;verticalLabelPosition=bottom;verticalAlign=top;align=center;html=1;shape=mxgraph.aws3.users;fillColor=#D2D3D3;gradientColor=none;" vertex="1" parent="1">
          <mxGeometry x="750" y="43.5" width="66" height="63" as="geometry" />
        </mxCell>
        <mxCell id="K6d-B-GEiIUVzLwblQmk-19" value="" style="rounded=1;arcSize=10;dashed=0;fillColor=none;gradientColor=none;strokeWidth=2;" vertex="1" parent="1">
          <mxGeometry x="330.5" y="325.75" width="469" height="663.5" as="geometry" />
        </mxCell>
        <mxCell id="K6d-B-GEiIUVzLwblQmk-20" value="" style="dashed=0;html=1;shape=mxgraph.aws3.virtual_private_cloud;fillColor=#F58536;gradientColor=none;dashed=0;" vertex="1" parent="1">
          <mxGeometry x="290" y="318" width="52" height="36" as="geometry" />
        </mxCell>
        <mxCell id="K6d-B-GEiIUVzLwblQmk-22" value="CloudWatch" style="outlineConnect=0;dashed=0;verticalLabelPosition=bottom;verticalAlign=top;align=center;html=1;shape=mxgraph.aws3.cloudwatch;fillColor=#759C3E;gradientColor=none;" vertex="1" parent="1">
          <mxGeometry x="366" y="1009" width="48" height="49" as="geometry" />
        </mxCell>
        <mxCell id="K6d-B-GEiIUVzLwblQmk-24" value="IAM" style="outlineConnect=0;dashed=0;verticalLabelPosition=bottom;verticalAlign=top;align=center;html=1;shape=mxgraph.aws3.iam;fillColor=#759C3E;gradientColor=none;" vertex="1" parent="1">
          <mxGeometry x="438" y="1010" width="20" height="36.5" as="geometry" />
        </mxCell>
        <mxCell id="K6d-B-GEiIUVzLwblQmk-26" value="&lt;font style=&quot;font-size: 8px;&quot;&gt;S3&lt;/font&gt;" style="outlineConnect=0;dashed=0;verticalLabelPosition=bottom;verticalAlign=top;align=center;html=1;shape=mxgraph.aws3.bucket_with_objects;fillColor=#E05243;gradientColor=none;" vertex="1" parent="1">
          <mxGeometry x="722" y="807.25" width="48" height="48" as="geometry" />
        </mxCell>
        <mxCell id="K6d-B-GEiIUVzLwblQmk-27" value="&lt;font style=&quot;font-size: 8px;&quot;&gt;EFS&lt;/font&gt;" style="outlineConnect=0;dashed=0;verticalLabelPosition=bottom;verticalAlign=top;align=center;html=1;shape=mxgraph.aws3.efs_share;fillColor=#E05243;gradientColor=none;" vertex="1" parent="1">
          <mxGeometry x="366" y="807.25" width="48" height="48" as="geometry" />
        </mxCell>
        <mxCell id="K6d-B-GEiIUVzLwblQmk-29" value="" style="edgeStyle=orthogonalEdgeStyle;html=1;endArrow=openThin;elbow=vertical;startArrow=openThin;startFill=0;endFill=0;strokeColor=#FF3333;rounded=0;entryX=0.442;entryY=-0.027;entryDx=0;entryDy=0;entryPerimeter=0;flowAnimation=1;" edge="1" parent="1" source="8c04EKVr1q2m-UehEfzs-19" target="8c04EKVr1q2m-UehEfzs-21">
          <mxGeometry width="100" relative="1" as="geometry">
            <mxPoint x="382.5" y="102" as="sourcePoint" />
            <mxPoint x="482.5" y="102" as="targetPoint" />
          </mxGeometry>
        </mxCell>
        <mxCell id="8c04EKVr1q2m-UehEfzs-6" value="&lt;font style=&quot;font-size: 8px;&quot;&gt;Cloud Shell&lt;/font&gt;" style="sketch=0;points=[[0,0,0],[0.25,0,0],[0.5,0,0],[0.75,0,0],[1,0,0],[0,1,0],[0.25,1,0],[0.5,1,0],[0.75,1,0],[1,1,0],[0,0.25,0],[0,0.5,0],[0,0.75,0],[1,0.25,0],[1,0.5,0],[1,0.75,0]];outlineConnect=0;fontColor=#232F3E;fillColor=#C925D1;strokeColor=#ffffff;dashed=0;verticalLabelPosition=bottom;verticalAlign=top;align=center;html=1;fontSize=12;fontStyle=0;aspect=fixed;shape=mxgraph.aws4.resourceIcon;resIcon=mxgraph.aws4.cloudshell;" vertex="1" parent="1">
          <mxGeometry x="159" y="372" width="48" height="48" as="geometry" />
        </mxCell>
        <mxCell id="8c04EKVr1q2m-UehEfzs-17" value="&lt;font style=&quot;font-size: 8px;&quot;&gt;aws Backup&lt;/font&gt;" style="sketch=0;points=[[0,0,0],[0.25,0,0],[0.5,0,0],[0.75,0,0],[1,0,0],[0,1,0],[0.25,1,0],[0.5,1,0],[0.75,1,0],[1,1,0],[0,0.25,0],[0,0.5,0],[0,0.75,0],[1,0.25,0],[1,0.5,0],[1,0.75,0]];outlineConnect=0;fontColor=#232F3E;fillColor=#7AA116;strokeColor=#ffffff;dashed=0;verticalLabelPosition=bottom;verticalAlign=top;align=center;html=1;fontSize=12;fontStyle=0;aspect=fixed;shape=mxgraph.aws4.resourceIcon;resIcon=mxgraph.aws4.backup;" vertex="1" parent="1">
          <mxGeometry x="297.5" y="1010" width="48" height="48" as="geometry" />
        </mxCell>
        <mxCell id="8c04EKVr1q2m-UehEfzs-18" value="Corpo Tecnico" style="sketch=0;outlineConnect=0;fontColor=#232F3E;gradientColor=none;fillColor=#232F3D;strokeColor=none;dashed=0;verticalLabelPosition=bottom;verticalAlign=top;align=center;html=1;fontSize=12;fontStyle=0;aspect=fixed;pointerEvents=1;shape=mxgraph.aws4.users;" vertex="1" parent="1">
          <mxGeometry x="20" y="36" width="78" height="78" as="geometry" />
        </mxCell>
        <mxCell id="K6d-B-GEiIUVzLwblQmk-18" value="" style="dashed=0;html=1;shape=mxgraph.aws3.cloud;fillColor=#F58536;gradientColor=none;dashed=0;" vertex="1" parent="1">
          <mxGeometry x="159" y="187" width="52" height="36" as="geometry" />
        </mxCell>
        <mxCell id="8c04EKVr1q2m-UehEfzs-21" value="" style="rounded=1;arcSize=10;dashed=1;strokeColor=#F59D56;fillColor=default;gradientColor=none;dashPattern=8 4;strokeWidth=2;" vertex="1" parent="1">
          <mxGeometry x="426" y="180" width="240" height="70" as="geometry" />
        </mxCell>
        <mxCell id="8c04EKVr1q2m-UehEfzs-23" value="" style="sketch=0;points=[[0,0,0],[0.25,0,0],[0.5,0,0],[0.75,0,0],[1,0,0],[0,1,0],[0.25,1,0],[0.5,1,0],[0.75,1,0],[1,1,0],[0,0.25,0],[0,0.5,0],[0,0.75,0],[1,0.25,0],[1,0.5,0],[1,0.75,0]];outlineConnect=0;fontColor=#232F3E;fillColor=#8C4FFF;strokeColor=#ffffff;dashed=0;verticalLabelPosition=bottom;verticalAlign=top;align=center;html=1;fontSize=12;fontStyle=0;aspect=fixed;shape=mxgraph.aws4.resourceIcon;resIcon=mxgraph.aws4.cloudfront;" vertex="1" parent="1">
          <mxGeometry x="497" y="187" width="48" height="48" as="geometry" />
        </mxCell>
        <mxCell id="8c04EKVr1q2m-UehEfzs-24" value="&lt;span style=&quot;color: rgb(35, 47, 62); font-size: 10px; font-weight: 700; text-wrap: wrap;&quot;&gt;Cloudfront&lt;/span&gt;" style="text;html=1;align=center;verticalAlign=middle;resizable=0;points=[];autosize=1;strokeColor=none;fillColor=none;" vertex="1" parent="1">
          <mxGeometry x="486" y="225" width="70" height="30" as="geometry" />
        </mxCell>
        <mxCell id="8c04EKVr1q2m-UehEfzs-25" value="" style="sketch=0;points=[[0,0,0],[0.25,0,0],[0.5,0,0],[0.75,0,0],[1,0,0],[0,1,0],[0.25,1,0],[0.5,1,0],[0.75,1,0],[1,1,0],[0,0.25,0],[0,0.5,0],[0,0.75,0],[1,0.25,0],[1,0.5,0],[1,0.75,0]];outlineConnect=0;fontColor=#232F3E;fillColor=#DD344C;strokeColor=#ffffff;dashed=0;verticalLabelPosition=bottom;verticalAlign=top;align=center;html=1;fontSize=12;fontStyle=0;aspect=fixed;shape=mxgraph.aws4.resourceIcon;resIcon=mxgraph.aws4.waf;" vertex="1" parent="1">
          <mxGeometry x="558" y="187" width="48" height="48" as="geometry" />
        </mxCell>
        <mxCell id="8c04EKVr1q2m-UehEfzs-26" value="&lt;span style=&quot;color: rgb(35, 47, 62); font-size: 10px; font-weight: 700; text-wrap: wrap;&quot;&gt;WAF&lt;/span&gt;" style="text;html=1;align=center;verticalAlign=middle;resizable=0;points=[];autosize=1;strokeColor=none;fillColor=none;" vertex="1" parent="1">
          <mxGeometry x="556" y="226" width="50" height="30" as="geometry" />
        </mxCell>
        <mxCell id="8c04EKVr1q2m-UehEfzs-31" value="" style="group" vertex="1" connectable="0" parent="1">
          <mxGeometry x="586" y="180.00214285714284" width="90" height="68.99785714285716" as="geometry" />
        </mxCell>
        <mxCell id="8c04EKVr1q2m-UehEfzs-28" value="&lt;div style=&quot;font-size: 9px;&quot;&gt;&lt;br style=&quot;font-size: 9px;&quot;&gt;&lt;/div&gt;" style="outlineConnect=0;dashed=0;verticalLabelPosition=bottom;verticalAlign=top;align=center;html=1;shape=mxgraph.aws3.certificate;fillColor=#5294CF;gradientColor=none;labelBorderColor=none;fontSize=9;" vertex="1" parent="8c04EKVr1q2m-UehEfzs-31">
          <mxGeometry x="27.257222222222197" width="35.48611111111111" height="43.285714285714285" as="geometry" />
        </mxCell>
        <mxCell id="8c04EKVr1q2m-UehEfzs-29" value="&lt;span style=&quot;color: rgb(35, 47, 62); font-size: 10px; font-weight: 700; text-wrap: wrap;&quot;&gt;Cert Manager&lt;/span&gt;" style="text;html=1;align=center;verticalAlign=middle;resizable=0;points=[];autosize=1;strokeColor=none;fillColor=none;fontSize=10;" vertex="1" parent="8c04EKVr1q2m-UehEfzs-31">
          <mxGeometry y="38.99785714285716" width="90" height="30" as="geometry" />
        </mxCell>
        <mxCell id="8c04EKVr1q2m-UehEfzs-32" value="" style="sketch=0;points=[[0,0,0],[0.25,0,0],[0.5,0,0],[0.75,0,0],[1,0,0],[0,1,0],[0.25,1,0],[0.5,1,0],[0.75,1,0],[1,1,0],[0,0.25,0],[0,0.5,0],[0,0.75,0],[1,0.25,0],[1,0.5,0],[1,0.75,0]];outlineConnect=0;fontColor=#232F3E;fillColor=#8C4FFF;strokeColor=#ffffff;dashed=0;verticalLabelPosition=bottom;verticalAlign=top;align=center;html=1;fontSize=12;fontStyle=0;aspect=fixed;shape=mxgraph.aws4.resourceIcon;resIcon=mxgraph.aws4.route_53;" vertex="1" parent="1">
          <mxGeometry x="438" y="187" width="48" height="48" as="geometry" />
        </mxCell>
        <mxCell id="8c04EKVr1q2m-UehEfzs-33" value="&lt;span style=&quot;color: rgb(35, 47, 62); font-size: 10px; font-weight: 700; text-wrap: wrap;&quot;&gt;Route_53&lt;/span&gt;" style="text;html=1;align=center;verticalAlign=middle;resizable=0;points=[];autosize=1;strokeColor=none;fillColor=none;" vertex="1" parent="1">
          <mxGeometry x="427" y="227" width="70" height="30" as="geometry" />
        </mxCell>
        <mxCell id="8c04EKVr1q2m-UehEfzs-34" value="&lt;font style=&quot;font-size: 8px;&quot;&gt;&lt;b&gt;CIDR&lt;/b&gt; : 10.20.0.0/16&lt;br&gt;&lt;b&gt;AZs&lt;/b&gt;: A - B - C&lt;br&gt;&lt;b&gt;Public SubNets&lt;/b&gt;:&amp;nbsp; 10.20.101.0/24 -&amp;nbsp;&lt;span style=&quot;font-family: Consolas, &amp;quot;Courier New&amp;quot;, monospace;&quot;&gt;10.20.102.0/24-&lt;/span&gt;10.20.103.0/24&lt;br&gt;&lt;b&gt;Private SubNets&lt;/b&gt;:&amp;nbsp;&lt;span style=&quot;font-family: Consolas, &amp;quot;Courier New&amp;quot;, monospace;&quot;&gt;10.20.201.0/24-1&lt;/span&gt;&lt;span style=&quot;font-family: Consolas, &amp;quot;Courier New&amp;quot;, monospace;&quot;&gt;0.20.202.0/24-&lt;/span&gt;&lt;span style=&quot;font-family: Consolas, &amp;quot;Courier New&amp;quot;, monospace;&quot;&gt;10.20.203.0/24&lt;/span&gt;&lt;/font&gt;&lt;div&gt;&lt;font style=&quot;font-size: 8px;&quot;&gt;&lt;span style=&quot;font-family: Consolas, &amp;quot;Courier New&amp;quot;, monospace;&quot;&gt;&lt;b&gt;Database SubNets&lt;/b&gt;: 10.20.21.0/24-10.20.22.0/24-10.20.23.0/24&lt;/span&gt;&lt;/font&gt;&lt;/div&gt;" style="text;html=1;align=left;verticalAlign=middle;resizable=0;points=[];autosize=1;strokeColor=none;fillColor=none;" vertex="1" parent="1">
          <mxGeometry x="490.0023467446963" y="1070.998630595454" width="310" height="90" as="geometry" />
        </mxCell>
        <mxCell id="8c04EKVr1q2m-UehEfzs-35" value="" style="dashed=0;html=1;shape=mxgraph.aws3.virtual_private_cloud;fillColor=#F58536;gradientColor=none;dashed=0;" vertex="1" parent="1">
          <mxGeometry x="434.5" y="1081" width="52" height="36" as="geometry" />
        </mxCell>
        <mxCell id="8c04EKVr1q2m-UehEfzs-36" value="Availability Zone A" style="fillColor=none;strokeColor=#147EBA;dashed=1;verticalAlign=top;fontStyle=0;fontColor=#147EBA;whiteSpace=wrap;html=1;" vertex="1" parent="1">
          <mxGeometry x="342" y="300" width="180" height="500" as="geometry" />
        </mxCell>
        <mxCell id="8c04EKVr1q2m-UehEfzs-37" value="Availability Zone C" style="fillColor=none;strokeColor=#147EBA;dashed=1;verticalAlign=top;fontStyle=0;fontColor=#147EBA;whiteSpace=wrap;html=1;" vertex="1" parent="1">
          <mxGeometry x="597" y="300" width="180" height="500" as="geometry" />
        </mxCell>
        <mxCell id="8c04EKVr1q2m-UehEfzs-39" value="&lt;font style=&quot;font-size: 10px;&quot;&gt;Public subnet 10.20.101.0/24&lt;/font&gt;" style="points=[[0,0],[0.25,0],[0.5,0],[0.75,0],[1,0],[1,0.25],[1,0.5],[1,0.75],[1,1],[0.75,1],[0.5,1],[0.25,1],[0,1],[0,0.75],[0,0.5],[0,0.25]];outlineConnect=0;gradientColor=none;html=1;whiteSpace=wrap;fontSize=12;fontStyle=0;container=1;pointerEvents=0;collapsible=0;recursiveResize=0;shape=mxgraph.aws4.group;grIcon=mxgraph.aws4.group_security_group;grStroke=0;strokeColor=#7AA116;fillColor=#F2F6E8;verticalAlign=top;align=left;spacingLeft=30;fontColor=#248814;dashed=0;" vertex="1" parent="1">
          <mxGeometry x="345.5" y="361" width="174.5" height="130" as="geometry" />
        </mxCell>
        <mxCell id="8c04EKVr1q2m-UehEfzs-40" value="&lt;span style=&quot;font-size: 10px;&quot;&gt;Public subnet 10.20.103.0/24&lt;/span&gt;" style="points=[[0,0],[0.25,0],[0.5,0],[0.75,0],[1,0],[1,0.25],[1,0.5],[1,0.75],[1,1],[0.75,1],[0.5,1],[0.25,1],[0,1],[0,0.75],[0,0.5],[0,0.25]];outlineConnect=0;gradientColor=none;html=1;whiteSpace=wrap;fontSize=12;fontStyle=0;container=1;pointerEvents=0;collapsible=0;recursiveResize=0;shape=mxgraph.aws4.group;grIcon=mxgraph.aws4.group_security_group;grStroke=0;strokeColor=#7AA116;fillColor=#F2F6E8;verticalAlign=top;align=left;spacingLeft=30;fontColor=#248814;dashed=0;" vertex="1" parent="1">
          <mxGeometry x="599.5" y="361" width="174.5" height="130" as="geometry" />
        </mxCell>
        <mxCell id="8c04EKVr1q2m-UehEfzs-41" value="&lt;span style=&quot;font-size: 10px;&quot;&gt;Private subnet 10.20.2&lt;/span&gt;&lt;span style=&quot;font-size: 10px; background-color: initial;&quot;&gt;01.0/24&lt;/span&gt;" style="points=[[0,0],[0.25,0],[0.5,0],[0.75,0],[1,0],[1,0.25],[1,0.5],[1,0.75],[1,1],[0.75,1],[0.5,1],[0.25,1],[0,1],[0,0.75],[0,0.5],[0,0.25]];outlineConnect=0;gradientColor=none;html=1;whiteSpace=wrap;fontSize=12;fontStyle=0;container=1;pointerEvents=0;collapsible=0;recursiveResize=0;shape=mxgraph.aws4.group;grIcon=mxgraph.aws4.group_security_group;grStroke=0;strokeColor=#00A4A6;fillColor=#E6F6F7;verticalAlign=top;align=left;spacingLeft=30;fontColor=#147EBA;dashed=0;" vertex="1" parent="1">
          <mxGeometry x="345.5" y="540" width="174" height="214" as="geometry" />
        </mxCell>
        <mxCell id="8c04EKVr1q2m-UehEfzs-42" value="&lt;span style=&quot;font-size: 10px;&quot;&gt;Private subnet 10.20.2&lt;/span&gt;&lt;span style=&quot;background-color: initial; font-size: 10px;&quot;&gt;03.0/24&lt;/span&gt;" style="points=[[0,0],[0.25,0],[0.5,0],[0.75,0],[1,0],[1,0.25],[1,0.5],[1,0.75],[1,1],[0.75,1],[0.5,1],[0.25,1],[0,1],[0,0.75],[0,0.5],[0,0.25]];outlineConnect=0;gradientColor=none;html=1;whiteSpace=wrap;fontSize=12;fontStyle=0;container=1;pointerEvents=0;collapsible=0;recursiveResize=0;shape=mxgraph.aws4.group;grIcon=mxgraph.aws4.group_security_group;grStroke=0;strokeColor=#00A4A6;fillColor=#E6F6F7;verticalAlign=top;align=left;spacingLeft=30;fontColor=#147EBA;dashed=0;" vertex="1" parent="1">
          <mxGeometry x="599.5" y="540" width="174" height="214" as="geometry" />
        </mxCell>
        <mxCell id="8c04EKVr1q2m-UehEfzs-48" value="" style="group" vertex="1" connectable="0" parent="1">
          <mxGeometry x="349" y="565" width="421" height="185" as="geometry" />
        </mxCell>
        <mxCell id="8c04EKVr1q2m-UehEfzs-43" value="&amp;nbsp; &amp;nbsp; &amp;nbsp; &amp;nbsp; &amp;nbsp; AWS ECS" style="fillColor=none;strokeColor=#147EBA;dashed=1;verticalAlign=top;fontStyle=0;fontColor=#147EBA;whiteSpace=wrap;html=1;align=left;" vertex="1" parent="8c04EKVr1q2m-UehEfzs-48">
          <mxGeometry width="421" height="185" as="geometry" />
        </mxCell>
        <mxCell id="8c04EKVr1q2m-UehEfzs-46" value="" style="sketch=0;points=[[0,0,0],[0.25,0,0],[0.5,0,0],[0.75,0,0],[1,0,0],[0,1,0],[0.25,1,0],[0.5,1,0],[0.75,1,0],[1,1,0],[0,0.25,0],[0,0.5,0],[0,0.75,0],[1,0.25,0],[1,0.5,0],[1,0.75,0]];outlineConnect=0;fontColor=#232F3E;fillColor=#3333FF;strokeColor=#ffffff;dashed=0;verticalLabelPosition=bottom;verticalAlign=top;align=center;html=1;fontSize=12;fontStyle=0;aspect=fixed;shape=mxgraph.aws4.resourceIcon;resIcon=mxgraph.aws4.ecs;" vertex="1" parent="8c04EKVr1q2m-UehEfzs-48">
          <mxGeometry width="25" height="25" as="geometry" />
        </mxCell>
        <mxCell id="8c04EKVr1q2m-UehEfzs-49" value="" style="group" vertex="1" connectable="0" parent="1">
          <mxGeometry x="360" y="590" width="410" height="140" as="geometry" />
        </mxCell>
        <mxCell id="K6d-B-GEiIUVzLwblQmk-3" value="&amp;nbsp; &amp;nbsp; &amp;nbsp; &amp;nbsp; &amp;nbsp;AWS Fargate" style="fillColor=none;strokeColor=#147EBA;dashed=1;verticalAlign=top;fontStyle=0;fontColor=#147EBA;whiteSpace=wrap;html=1;align=left;" vertex="1" parent="8c04EKVr1q2m-UehEfzs-49">
          <mxGeometry y="1.0687022900763359" width="410" height="138.93129770992365" as="geometry" />
        </mxCell>
        <mxCell id="8c04EKVr1q2m-UehEfzs-47" value="" style="sketch=0;points=[[0,0,0],[0.25,0,0],[0.5,0,0],[0.75,0,0],[1,0,0],[0,1,0],[0.25,1,0],[0.5,1,0],[0.75,1,0],[1,1,0],[0,0.25,0],[0,0.5,0],[0,0.75,0],[1,0.25,0],[1,0.5,0],[1,0.75,0]];outlineConnect=0;fontColor=#232F3E;fillColor=#3399FF;strokeColor=#ffffff;dashed=0;verticalLabelPosition=bottom;verticalAlign=top;align=center;html=1;fontSize=12;fontStyle=0;aspect=fixed;shape=mxgraph.aws4.resourceIcon;resIcon=mxgraph.aws4.fargate;" vertex="1" parent="8c04EKVr1q2m-UehEfzs-49">
          <mxGeometry width="25" height="25" as="geometry" />
        </mxCell>
        <mxCell id="8c04EKVr1q2m-UehEfzs-50" value="Container 2" style="sketch=0;outlineConnect=0;fontColor=#232F3E;gradientColor=none;strokeColor=#232F3E;fillColor=#E6F6F7;dashed=0;verticalLabelPosition=bottom;verticalAlign=top;align=center;html=1;fontSize=12;fontStyle=0;aspect=fixed;shape=mxgraph.aws4.resourceIcon;resIcon=mxgraph.aws4.container_2;" vertex="1" parent="8c04EKVr1q2m-UehEfzs-49">
          <mxGeometry x="50" y="40" width="60" height="60" as="geometry" />
        </mxCell>
        <mxCell id="8c04EKVr1q2m-UehEfzs-51" value="Container 2" style="sketch=0;outlineConnect=0;fontColor=#232F3E;gradientColor=none;strokeColor=#232F3E;fillColor=#E6F6F7;dashed=0;verticalLabelPosition=bottom;verticalAlign=top;align=center;html=1;fontSize=12;fontStyle=0;aspect=fixed;shape=mxgraph.aws4.resourceIcon;resIcon=mxgraph.aws4.container_2;" vertex="1" parent="8c04EKVr1q2m-UehEfzs-49">
          <mxGeometry x="300" y="40" width="60" height="60" as="geometry" />
        </mxCell>
        <mxCell id="K6d-B-GEiIUVzLwblQmk-44" value="" style="sketch=0;outlineConnect=0;fontColor=#232F3E;gradientColor=none;strokeColor=#ffffff;fillColor=#232F3E;dashed=0;verticalLabelPosition=middle;verticalAlign=bottom;align=center;html=1;whiteSpace=wrap;fontSize=10;fontStyle=1;spacing=3;shape=mxgraph.aws4.productIcon;prIcon=mxgraph.aws4.autoscaling;" vertex="1" parent="8c04EKVr1q2m-UehEfzs-49">
          <mxGeometry x="170" y="52" width="48" height="48" as="geometry" />
        </mxCell>
        <mxCell id="8c04EKVr1q2m-UehEfzs-53" value="&lt;font style=&quot;font-size: 8px;&quot;&gt;Auto Scaling&lt;/font&gt;" style="text;html=1;align=center;verticalAlign=middle;resizable=0;points=[];autosize=1;strokeColor=none;fillColor=none;fontSize=11;" vertex="1" parent="8c04EKVr1q2m-UehEfzs-49">
          <mxGeometry x="159" y="90" width="70" height="30" as="geometry" />
        </mxCell>
        <mxCell id="8c04EKVr1q2m-UehEfzs-15" value="NAT gateway" style="sketch=0;outlineConnect=0;fontColor=#232F3E;gradientColor=none;strokeColor=#232F3E;fillColor=#F2F6E8;dashed=0;verticalLabelPosition=bottom;verticalAlign=top;align=center;html=1;fontSize=12;fontStyle=0;aspect=fixed;shape=mxgraph.aws4.resourceIcon;resIcon=mxgraph.aws4.nat_gateway;" vertex="1" parent="1">
          <mxGeometry x="408" y="414" width="48" height="48" as="geometry" />
        </mxCell>
        <mxCell id="8c04EKVr1q2m-UehEfzs-52" value="NAT gateway" style="sketch=0;outlineConnect=0;fontColor=#232F3E;gradientColor=none;strokeColor=#232F3E;fillColor=#F2F6E8;dashed=0;verticalLabelPosition=bottom;verticalAlign=top;align=center;html=1;fontSize=12;fontStyle=0;aspect=fixed;shape=mxgraph.aws4.resourceIcon;resIcon=mxgraph.aws4.nat_gateway;" vertex="1" parent="1">
          <mxGeometry x="667" y="414" width="48" height="48" as="geometry" />
        </mxCell>
        <mxCell id="8c04EKVr1q2m-UehEfzs-56" value="" style="group" vertex="1" connectable="0" parent="1">
          <mxGeometry x="204" y="1010" width="80" height="63.5" as="geometry" />
        </mxCell>
        <mxCell id="K6d-B-GEiIUVzLwblQmk-31" value="" style="sketch=0;outlineConnect=0;fontColor=#232F3E;gradientColor=none;strokeColor=#ffffff;fillColor=#232F3E;dashed=0;verticalLabelPosition=middle;verticalAlign=bottom;align=center;html=1;whiteSpace=wrap;fontSize=10;fontStyle=1;spacing=3;shape=mxgraph.aws4.productIcon;prIcon=mxgraph.aws4.sns;" vertex="1" parent="8c04EKVr1q2m-UehEfzs-56">
          <mxGeometry x="16" width="48" height="48" as="geometry" />
        </mxCell>
        <mxCell id="8c04EKVr1q2m-UehEfzs-55" value="&lt;span style=&quot;color: rgb(35, 47, 62); font-size: 8px; font-weight: 700; text-wrap: wrap;&quot;&gt;Amazon_SNS&lt;/span&gt;" style="text;html=1;align=center;verticalAlign=middle;resizable=0;points=[];autosize=1;strokeColor=none;fillColor=none;fontSize=8;" vertex="1" parent="8c04EKVr1q2m-UehEfzs-56">
          <mxGeometry y="43.5" width="80" height="20" as="geometry" />
        </mxCell>
        <mxCell id="8c04EKVr1q2m-UehEfzs-62" value="" style="group" vertex="1" connectable="0" parent="1">
          <mxGeometry x="161" y="580" width="149" height="380" as="geometry" />
        </mxCell>
        <mxCell id="8c04EKVr1q2m-UehEfzs-63" value="&lt;span style=&quot;color: rgb(35, 47, 62); font-size: 10px; font-weight: 700;&quot;&gt;&amp;nbsp; &amp;nbsp; &amp;nbsp; &amp;nbsp; &amp;nbsp;AWS CodePipeline&lt;/span&gt;" style="fillColor=none;strokeColor=#147EBA;dashed=1;verticalAlign=top;fontStyle=0;fontColor=#147EBA;whiteSpace=wrap;html=1;align=left;" vertex="1" parent="8c04EKVr1q2m-UehEfzs-62">
          <mxGeometry width="149" height="230" as="geometry" />
        </mxCell>
        <mxCell id="8c04EKVr1q2m-UehEfzs-64" value="" style="sketch=0;outlineConnect=0;fontColor=#232F3E;gradientColor=none;strokeColor=#ffffff;fillColor=#232F3E;dashed=0;verticalLabelPosition=middle;verticalAlign=bottom;align=center;html=1;whiteSpace=wrap;fontSize=10;fontStyle=1;spacing=3;shape=mxgraph.aws4.productIcon;prIcon=mxgraph.aws4.codepipeline;" vertex="1" parent="8c04EKVr1q2m-UehEfzs-62">
          <mxGeometry width="20.694444444444443" height="24.152542372881353" as="geometry" />
        </mxCell>
        <mxCell id="8c04EKVr1q2m-UehEfzs-65" value="" style="verticalLabelPosition=bottom;html=1;verticalAlign=top;align=center;strokeColor=none;fillColor=#00BEF2;shape=mxgraph.azure.github_code;pointerEvents=1;" vertex="1" parent="8c04EKVr1q2m-UehEfzs-62">
          <mxGeometry x="11" y="37.767307692307696" width="48" height="48" as="geometry" />
        </mxCell>
        <mxCell id="8c04EKVr1q2m-UehEfzs-3" value="" style="sketch=0;points=[[0,0,0],[0.25,0,0],[0.5,0,0],[0.75,0,0],[1,0,0],[0,1,0],[0.25,1,0],[0.5,1,0],[0.75,1,0],[1,1,0],[0,0.25,0],[0,0.5,0],[0,0.75,0],[1,0.25,0],[1,0.5,0],[1,0.75,0]];outlineConnect=0;fontColor=#232F3E;fillColor=#C925D1;strokeColor=#ffffff;dashed=0;verticalLabelPosition=bottom;verticalAlign=top;align=center;html=1;fontSize=12;fontStyle=0;aspect=fixed;shape=mxgraph.aws4.resourceIcon;resIcon=mxgraph.aws4.codedeploy;" vertex="1" parent="8c04EKVr1q2m-UehEfzs-62">
          <mxGeometry x="89" y="122.53846153846152" width="48" height="48" as="geometry" />
        </mxCell>
        <mxCell id="8c04EKVr1q2m-UehEfzs-5" value="" style="sketch=0;points=[[0,0,0],[0.25,0,0],[0.5,0,0],[0.75,0,0],[1,0,0],[0,1,0],[0.25,1,0],[0.5,1,0],[0.75,1,0],[1,1,0],[0,0.25,0],[0,0.5,0],[0,0.75,0],[1,0.25,0],[1,0.5,0],[1,0.75,0]];outlineConnect=0;fontColor=#232F3E;fillColor=#C925D1;strokeColor=#ffffff;dashed=0;verticalLabelPosition=bottom;verticalAlign=top;align=center;html=1;fontSize=12;fontStyle=0;aspect=fixed;shape=mxgraph.aws4.resourceIcon;resIcon=mxgraph.aws4.codebuild;" vertex="1" parent="8c04EKVr1q2m-UehEfzs-62">
          <mxGeometry x="8" y="121.07692307692304" width="48" height="48" as="geometry" />
        </mxCell>
        <mxCell id="z_z5ya1CazYd2O84Zhvu-1" value="" style="sketch=0;outlineConnect=0;fontColor=#232F3E;gradientColor=none;strokeColor=#ffffff;fillColor=#232F3E;dashed=0;verticalLabelPosition=middle;verticalAlign=bottom;align=center;html=1;whiteSpace=wrap;fontSize=10;fontStyle=1;spacing=3;shape=mxgraph.aws4.productIcon;prIcon=mxgraph.aws4.ecr;" vertex="1" parent="8c04EKVr1q2m-UehEfzs-62">
          <mxGeometry x="90" y="36.76999999999998" width="48" height="48" as="geometry" />
        </mxCell>
        <mxCell id="K6d-B-GEiIUVzLwblQmk-9" value="RDS Mult AZ" style="outlineConnect=0;dashed=0;verticalLabelPosition=bottom;verticalAlign=top;align=center;html=1;shape=mxgraph.aws3.rds_db_instance_standby_multi_az;fillColor=#2E73B8;gradientColor=none;fontSize=8;" vertex="1" parent="1">
          <mxGeometry x="535.5" y="834" width="48" height="55.25" as="geometry" />
        </mxCell>
        <mxCell id="8c04EKVr1q2m-UehEfzs-68" value="Mult_Zonas(Multi AZ&#39;s)" style="text;html=1;align=center;verticalAlign=middle;resizable=0;points=[];autosize=1;strokeColor=none;fillColor=none;fontSize=8;" vertex="1" parent="1">
          <mxGeometry x="504.5" y="800" width="110" height="20" as="geometry" />
        </mxCell>
        <mxCell id="8c04EKVr1q2m-UehEfzs-70" value="&lt;font style=&quot;font-size: 8px;&quot;&gt;EC2_Orquestrador&lt;/font&gt;" style="text;html=1;align=center;verticalAlign=middle;resizable=0;points=[];autosize=1;strokeColor=none;fillColor=none;" vertex="1" parent="1">
          <mxGeometry x="336" y="777.25" width="90" height="30" as="geometry" />
        </mxCell>
        <mxCell id="8c04EKVr1q2m-UehEfzs-72" value="" style="edgeStyle=orthogonalEdgeStyle;html=1;endArrow=openThin;elbow=vertical;startArrow=openThin;startFill=0;endFill=0;strokeColor=#FF3333;rounded=0;flowAnimation=1;" edge="1" parent="1">
          <mxGeometry width="100" relative="1" as="geometry">
            <mxPoint x="101.5" y="81" as="sourcePoint" />
            <mxPoint x="490" y="80" as="targetPoint" />
          </mxGeometry>
        </mxCell>
        <mxCell id="8c04EKVr1q2m-UehEfzs-74" value="" style="edgeStyle=orthogonalEdgeStyle;html=1;endArrow=openThin;elbow=vertical;startArrow=openThin;startFill=0;endFill=0;strokeColor=#FF3333;rounded=0;flowAnimation=1;" edge="1" parent="1" source="8c04EKVr1q2m-UehEfzs-19">
          <mxGeometry width="100" relative="1" as="geometry">
            <mxPoint x="391.5" y="81" as="sourcePoint" />
            <mxPoint x="740" y="80" as="targetPoint" />
            <Array as="points">
              <mxPoint x="656" y="80" />
              <mxPoint x="740" y="81" />
            </Array>
          </mxGeometry>
        </mxCell>
        <mxCell id="8c04EKVr1q2m-UehEfzs-19" value="Internet" style="outlineConnect=0;dashed=0;verticalLabelPosition=bottom;verticalAlign=top;align=center;html=1;shape=mxgraph.aws3.internet_2;fillColor=#D2D3D3;gradientColor=none;" vertex="1" parent="1">
          <mxGeometry x="492" y="48" width="79.5" height="54" as="geometry" />
        </mxCell>
        <mxCell id="8c04EKVr1q2m-UehEfzs-79" value="" style="edgeStyle=orthogonalEdgeStyle;html=1;endArrow=openThin;elbow=vertical;startArrow=openThin;startFill=0;endFill=0;strokeColor=#3333FF;rounded=0;entryX=0.442;entryY=-0.027;entryDx=0;entryDy=0;entryPerimeter=0;flowAnimation=1;exitX=0.037;exitY=0.985;exitDx=0;exitDy=0;exitPerimeter=0;" edge="1" parent="1" source="8c04EKVr1q2m-UehEfzs-26">
          <mxGeometry width="100" relative="1" as="geometry">
            <mxPoint x="557" y="198" as="sourcePoint" />
            <mxPoint x="557" y="274" as="targetPoint" />
          </mxGeometry>
        </mxCell>
        <mxCell id="8c04EKVr1q2m-UehEfzs-80" value="" style="edgeStyle=orthogonalEdgeStyle;html=1;endArrow=openThin;elbow=vertical;startArrow=openThin;startFill=0;endFill=0;strokeColor=#3333FF;rounded=0;entryX=0.483;entryY=0.172;entryDx=0;entryDy=0;entryPerimeter=0;flowAnimation=1;exitX=0.037;exitY=0.985;exitDx=0;exitDy=0;exitPerimeter=0;" edge="1" parent="1" target="K6d-B-GEiIUVzLwblQmk-19">
          <mxGeometry width="100" relative="1" as="geometry">
            <mxPoint x="558" y="327" as="sourcePoint" />
            <mxPoint x="557" y="345" as="targetPoint" />
          </mxGeometry>
        </mxCell>
        <mxCell id="8c04EKVr1q2m-UehEfzs-82" value="" style="edgeStyle=orthogonalEdgeStyle;html=1;endArrow=openThin;elbow=vertical;startArrow=openThin;startFill=0;endFill=0;strokeColor=#3333FF;rounded=0;flowAnimation=1;exitX=0.037;exitY=0.985;exitDx=0;exitDy=0;exitPerimeter=0;" edge="1" parent="1">
          <mxGeometry width="100" relative="1" as="geometry">
            <mxPoint x="558" y="492" as="sourcePoint" />
            <mxPoint x="558" y="590" as="targetPoint" />
          </mxGeometry>
        </mxCell>
        <mxCell id="K6d-B-GEiIUVzLwblQmk-30" value="" style="html=1;endArrow=openThin;elbow=vertical;startArrow=none;endFill=0;strokeColor=#00CC00;rounded=0;flowAnimation=1;exitX=0.2;exitY=0.003;exitDx=0;exitDy=0;exitPerimeter=0;entryX=0.685;entryY=0.942;entryDx=0;entryDy=0;entryPerimeter=0;" edge="1" parent="1">
          <mxGeometry width="100" relative="1" as="geometry">
            <mxPoint x="434.5" y="589.5" as="sourcePoint" />
            <mxPoint x="433.3800000000001" y="457.23050381679377" as="targetPoint" />
          </mxGeometry>
        </mxCell>
        <mxCell id="8c04EKVr1q2m-UehEfzs-85" value="" style="html=1;endArrow=openThin;elbow=vertical;startArrow=none;endFill=0;strokeColor=#00CC00;rounded=0;flowAnimation=1;exitX=0.2;exitY=0.003;exitDx=0;exitDy=0;exitPerimeter=0;entryX=0.685;entryY=0.942;entryDx=0;entryDy=0;entryPerimeter=0;" edge="1" parent="1">
          <mxGeometry width="100" relative="1" as="geometry">
            <mxPoint x="693.5" y="589.5" as="sourcePoint" />
            <mxPoint x="692.3800000000001" y="457.23050381679377" as="targetPoint" />
          </mxGeometry>
        </mxCell>
        <mxCell id="8c04EKVr1q2m-UehEfzs-86" value="" style="edgeStyle=orthogonalEdgeStyle;html=1;endArrow=openThin;elbow=vertical;startArrow=openThin;startFill=0;endFill=0;strokeColor=#FF8000;rounded=0;flowAnimation=1;exitX=0.187;exitY=1.003;exitDx=0;exitDy=0;exitPerimeter=0;" edge="1" parent="1" source="K6d-B-GEiIUVzLwblQmk-3">
          <mxGeometry width="100" relative="1" as="geometry">
            <mxPoint x="437" y="706" as="sourcePoint" />
            <mxPoint x="437" y="800" as="targetPoint" />
          </mxGeometry>
        </mxCell>
        <mxCell id="8c04EKVr1q2m-UehEfzs-87" value="" style="edgeStyle=orthogonalEdgeStyle;html=1;endArrow=openThin;elbow=vertical;startArrow=openThin;startFill=0;endFill=0;strokeColor=#FF8000;rounded=0;flowAnimation=1;exitX=0.187;exitY=1.003;exitDx=0;exitDy=0;exitPerimeter=0;" edge="1" parent="1">
          <mxGeometry width="100" relative="1" as="geometry">
            <mxPoint x="702" y="730" as="sourcePoint" />
            <mxPoint x="702" y="800" as="targetPoint" />
          </mxGeometry>
        </mxCell>
        <mxCell id="8c04EKVr1q2m-UehEfzs-88" value="" style="shape=image;imageAspect=0;aspect=fixed;verticalLabelPosition=bottom;verticalAlign=top;image=data:image/jpeg,/9j/4AAQSkZJRgABAQEAYABgAAD/4QMuRXhpZgAATU0AKgAAAAgABAE7AAIAAAAhAAABSodpAAQAAAABAAABbJydAAEAAABCAAAC5OocAAcAAAEMAAAAPgAAAAAc6gAAAAEAAAAAAAAAAAAAAAAAAAAAAAAAAAAAAAAAAAAAAAAAAAAAAAAAAAAAAAAAAAAAAAAAAAAAAAAAAAAAAAAAAAAAAAAAAAAAAAAAAAAAAAAAAAAAAAAAAAAAAAAAAAAAAAAAAAAAAAAAAAAAAAAAAAAAAAAAAAAAAAAAAAAAAAAAAAAAAAAAAAAAAAAAAAAAAAAAAAAAAAAAAAAAAAAAAAAAAAAAAAAAAAAAAAAAAAAAAAAAAAAAAAAAAAAAAAAAAAAAAAAAAAAAAAAAAAAAAAAAAAAAAAAAAAAAAAAAAAAAAAAAAAAAAAAAAAAAAAAAAAAAAAAAAAAAAAAAAAAAAAAAAAAAAAAAQ2FybG9zIFJleW5hbGRvIEZlcm5hbmRlcyBKdW5pb3IAAAAFkAMAAgAAABQAAAK6kAQAAgAAABQAAALOkpEAAgAAAAM1OQAAkpIAAgAAAAM1OQAA6hwABwAAAQwAAAGuAAAAABzqAAAAAQAAAAAAAAAAAAAAAAAAAAAAAAAAAAAAAAAAAAAAAAAAAAAAAAAAAAAAAAAAAAAAAAAAAAAAAAAAAAAAAAAAAAAAAAAAAAAAAAAAAAAAAAAAAAAAAAAAAAAAAAAAAAAAAAAAAAAAAAAAAAAAAAAAAAAAAAAAAAAAAAAAAAAAAAAAAAAAAAAAAAAAAAAAAAAAAAAAAAAAAAAAAAAAAAAAAAAAAAAAAAAAAAAAAAAAAAAAAAAAAAAAAAAAAAAAAAAAAAAAAAAAAAAAAAAAAAAAAAAAAAAAAAAAAAAAAAAAAAAAAAAAAAAAAAAAAAAAAAAAAAAAAAAAAAAAAAAAAAAAAAAAAAAAAAAyMDI0OjAyOjI4IDE3OjUwOjQ3ADIwMjQ6MDI6MjggMTc6NTA6NDcAAABDAGEAcgBsAG8AcwAgAFIAZQB5AG4AYQBsAGQAbwAgAEYAZQByAG4AYQBuAGQAZQBzACAASgB1AG4AaQBvAHIAAAD/4QQzaHR0cDovL25zLmFkb2JlLmNvbS94YXAvMS4wLwA8P3hwYWNrZXQgYmVnaW49J++7vycgaWQ9J1c1TTBNcENlaGlIenJlU3pOVGN6a2M5ZCc/Pg0KPHg6eG1wbWV0YSB4bWxuczp4PSJhZG9iZTpuczptZXRhLyI+PHJkZjpSREYgeG1sbnM6cmRmPSJodHRwOi8vd3d3LnczLm9yZy8xOTk5LzAyLzIyLXJkZi1zeW50YXgtbnMjIj48cmRmOkRlc2NyaXB0aW9uIHJkZjphYm91dD0idXVpZDpmYWY1YmRkNS1iYTNkLTExZGEtYWQzMS1kMzNkNzUxODJmMWIiIHhtbG5zOmRjPSJodHRwOi8vcHVybC5vcmcvZGMvZWxlbWVudHMvMS4xLyIvPjxyZGY6RGVzY3JpcHRpb24gcmRmOmFib3V0PSJ1dWlkOmZhZjViZGQ1LWJhM2QtMTFkYS1hZDMxLWQzM2Q3NTE4MmYxYiIgeG1sbnM6eG1wPSJodHRwOi8vbnMuYWRvYmUuY29tL3hhcC8xLjAvIj48eG1wOkNyZWF0ZURhdGU+MjAyNC0wMi0yOFQxNzo1MDo0Ny41OTA8L3htcDpDcmVhdGVEYXRlPjwvcmRmOkRlc2NyaXB0aW9uPjxyZGY6RGVzY3JpcHRpb24gcmRmOmFib3V0PSJ1dWlkOmZhZjViZGQ1LWJhM2QtMTFkYS1hZDMxLWQzM2Q3NTE4MmYxYiIgeG1sbnM6ZGM9Imh0dHA6Ly9wdXJsLm9yZy9kYy9lbGVtZW50cy8xLjEvIj48ZGM6Y3JlYXRvcj48cmRmOlNlcSB4bWxuczpyZGY9Imh0dHA6Ly93d3cudzMub3JnLzE5OTkvMDIvMjItcmRmLXN5bnRheC1ucyMiPjxyZGY6bGk+Q2FybG9zIFJleW5hbGRvIEZlcm5hbmRlcyBKdW5pb3I8L3JkZjpsaT48L3JkZjpTZXE+DQoJCQk8L2RjOmNyZWF0b3I+PC9yZGY6RGVzY3JpcHRpb24+PC9yZGY6UkRGPjwveDp4bXBtZXRhPg0KICAgICAgICAgICAgICAgICAgICAgICAgICAgICAgICAgICAgICAgICAgICAgICAgICAgICAgICAgICAgICAgICAgICAgICAgICAgICAgICAgICAgICAgICAgICAgICAgICAgIAogICAgICAgICAgICAgICAgICAgICAgICAgICAgICAgICAgICAgICAgICAgICAgICAgICAgICAgICAgICAgICAgICAgICAgICAgICAgICAgICAgICAgICAgICAgICAgICAgICAgCiAgICAgICAgICAgICAgICAgICAgICAgICAgICAgICAgICAgICAgICAgICAgICAgICAgICAgIDw/eHBhY2tldCBlbmQ9J3cnPz7/2wBDAAcFBQYFBAcGBQYIBwcIChELCgkJChUPEAwRGBUaGRgVGBcbHichGx0lHRcYIi4iJSgpKywrGiAvMy8qMicqKyr/2wBDAQcICAoJChQLCxQqHBgcKioqKioqKioqKioqKioqKioqKioqKioqKioqKioqKioqKioqKioqKioqKioqKioqKir/wAARCAAnACcDASIAAhEBAxEB/8QAHwAAAQUBAQEBAQEAAAAAAAAAAAECAwQFBgcICQoL/8QAtRAAAgEDAwIEAwUFBAQAAAF9AQIDAAQRBRIhMUEGE1FhByJxFDKBkaEII0KxwRVS0fAkM2JyggkKFhcYGRolJicoKSo0NTY3ODk6Q0RFRkdISUpTVFVWV1hZWmNkZWZnaGlqc3R1dnd4eXqDhIWGh4iJipKTlJWWl5iZmqKjpKWmp6ipqrKztLW2t7i5usLDxMXGx8jJytLT1NXW19jZ2uHi4+Tl5ufo6erx8vP09fb3+Pn6/8QAHwEAAwEBAQEBAQEBAQAAAAAAAAECAwQFBgcICQoL/8QAtREAAgECBAQDBAcFBAQAAQJ3AAECAxEEBSExBhJBUQdhcRMiMoEIFEKRobHBCSMzUvAVYnLRChYkNOEl8RcYGRomJygpKjU2Nzg5OkNERUZHSElKU1RVVldYWVpjZGVmZ2hpanN0dXZ3eHl6goOEhYaHiImKkpOUlZaXmJmaoqOkpaanqKmqsrO0tba3uLm6wsPExcbHyMnK0tPU1dbX2Nna4uPk5ebn6Onq8vP09fb3+Pn6/9oADAMBAAIRAxEAPwD6Ommjt4JJp5FjijUu7ucBVAyST2GKcjrIiujBlYZVgcgj1rL8Uo0ng/WUjUs7WE4VVGST5bcV4f4G8YavoeoC2huGls/Klka2lOVysbNx/d5XtXbQwkq9OU4vVGsKblFtH0LRXK+GfiHoniSLasws7sLl7e4YA/VW6MP19qrTfEnS5vEtloujn7bJcTrHJcKf3aDvg/xH6ce56Vl9Wrczjy7E8kr2sdnRRRXOQFcj4r8HaLPbXmteQbW8gtpneaBR84MbA7l4DHBPcHPeuuqjrdrLfeH9QtLcAyz2ssaAnGWZCB+prWlOUJpp2Ki2mfPOl6VNbaklzC6XVoY5QLiHJUHy2wGHVT7HHtmuo+Hfw/1l9astavYvsVrbuJVWYfPL6YXsPc/rWP4O0/UdE+JWm2eoQTWkpl2vG2RvXB/Aj9K+hK9rHYqdL3I68y3+86qtRx0XUKKKK8A4wooooAguLK2u5IZLmBJHt38yJ2HMbeoPap6KKd2AUUUUgP/Z;" vertex="1" parent="1">
          <mxGeometry x="161" y="443" width="48" height="48" as="geometry" />
        </mxCell>
        <mxCell id="8c04EKVr1q2m-UehEfzs-91" value="&lt;font style=&quot;font-size: 8px;&quot;&gt;Terraform&lt;/font&gt;" style="text;html=1;align=center;verticalAlign=middle;resizable=0;points=[];autosize=1;strokeColor=none;fillColor=none;" vertex="1" parent="1">
          <mxGeometry x="155" y="474" width="60" height="30" as="geometry" />
        </mxCell>
        <mxCell id="8c04EKVr1q2m-UehEfzs-92" value="&lt;font style=&quot;font-size: 8px;&quot;&gt;AWS_CLI&lt;/font&gt;" style="text;html=1;align=center;verticalAlign=middle;resizable=0;points=[];autosize=1;strokeColor=none;fillColor=none;" vertex="1" parent="1">
          <mxGeometry x="155" y="538" width="60" height="30" as="geometry" />
        </mxCell>
        <mxCell id="z_z5ya1CazYd2O84Zhvu-3" value="ECR" style="text;html=1;align=center;verticalAlign=middle;resizable=0;points=[];autosize=1;strokeColor=none;fillColor=none;fontSize=8;" vertex="1" parent="1">
          <mxGeometry x="253.5" y="661" width="40" height="20" as="geometry" />
        </mxCell>
        <mxCell id="z_z5ya1CazYd2O84Zhvu-5" value="" style="html=1;endArrow=openThin;elbow=vertical;startArrow=none;endFill=0;strokeColor=#D69809;rounded=0;flowAnimation=1;exitX=0.2;exitY=0.003;exitDx=0;exitDy=0;exitPerimeter=0;fillColor=#fff2cc;" edge="1" parent="1">
          <mxGeometry width="100" relative="1" as="geometry">
            <mxPoint x="299.5" y="658.5" as="sourcePoint" />
            <mxPoint x="360" y="659" as="targetPoint" />
          </mxGeometry>
        </mxCell>
        <mxCell id="p6w-Jk2dgGYV4uoYDBYU-1" value="CodeDeploy" style="text;html=1;align=center;verticalAlign=middle;resizable=0;points=[];autosize=1;strokeColor=none;fillColor=none;fontSize=8;" vertex="1" parent="1">
          <mxGeometry x="236.5" y="749" width="70" height="20" as="geometry" />
        </mxCell>
        <mxCell id="p6w-Jk2dgGYV4uoYDBYU-2" value="CodeBuild" style="text;html=1;align=center;verticalAlign=middle;resizable=0;points=[];autosize=1;strokeColor=none;fillColor=none;fontSize=8;" vertex="1" parent="1">
          <mxGeometry x="163.5" y="747" width="60" height="20" as="geometry" />
        </mxCell>
      </root>
    </mxGraphModel>
  </diagram>
</mxfile>
